<svg xmlns="http://www.w3.org/2000/svg" viewBox="0 0 1440 900" fill="none" aria-hidden="true">
  <defs>
    <linearGradient id="sky" x1="0" y1="0" x2="0.2" y2="1">
      <stop offset="0%" stop-color="#1a2229"/>
      <stop offset="45%" stop-color="#3a4854"/>
      <stop offset="100%" stop-color="#5c6a74"/>
    </linearGradient>
    <linearGradient id="glow" x1="0.5" y1="0" x2="0.5" y2="1">
      <stop offset="0%" stop-color="#8a9aa8" stop-opacity="0.25"/>
      <stop offset="100%" stop-color="#8a9aa8" stop-opacity="0"/>
    </linearGradient>
    <pattern id="rain" width="6" height="20" patternUnits="userSpaceOnUse">
      <line x1="0" y1="0" x2="-1.5" y2="12" stroke="#c8d4e0" stroke-opacity="0.18" stroke-width="0.7"/>
    </pattern>
    <filter id="blur">
      <feGaussianBlur stdDeviation="1.2"/>
    </filter>
  </defs>
  <rect width="1440" height="900" fill="url(#sky)"/>
  <ellipse cx="720" cy="180" rx="500" ry="200" fill="url(#glow)"/>
  <rect width="1440" height="900" fill="url(#rain)"/>
  <rect x="120" y="340" width="36" height="100" fill="#2a3238" opacity="0.5"/>
  <rect x="168" y="310" width="52" height="140" fill="#323c44" opacity="0.45"/>
  <rect x="232" y="330" width="28" height="110" fill="#2a3238" opacity="0.4"/>
  <rect x="280" y="350" width="44" height="90" fill="#3a444c" opacity="0.35"/>
  <rect x="820" y="300" width="48" height="150" fill="#38424a" opacity="0.5"/>
  <rect x="880" y="320" width="64" height="130" fill="#404a52" opacity="0.45"/>
  <rect x="960" y="340" width="40" height="110" fill="#343e46" opacity="0.4"/>
  <rect x="1040" y="360" width="56" height="95" fill="#3a444c" opacity="0.38"/>
  <path d="M0 520 Q400 490 800 510 T1440 500 L1440 900 L0 900Z" fill="#252c33" opacity="0.85"/>
  <path d="M0 600 Q500 580 900 595 T1440 585 L1440 900 L0 900Z" fill="#1a2026" opacity="0.9"/>
  <ellipse cx="1050" cy="620" rx="200" ry="28" fill="#12161a" opacity="0.35" filter="url(#blur)"/>
  <path d="M0 680 Q720 650 1440 690" stroke="#6a7884" stroke-opacity="0.15" stroke-width="3" fill="none"/>
  <rect x="0" y="750" width="1440" height="150" fill="#14181c" opacity="0.4"/>
</svg>
